<?xml version="1.0"?>
<svg xmlns:rdf="http://www.w3.org/1999/02/22-rdf-syntax-ns#" xmlns="http://www.w3.org/2000/svg" xmlns:cc="http://web.resource.org/cc/" xmlns:dc="http://purl.org/dc/elements/1.1/" xmlns:svg="http://www.w3.org/2000/svg" id="svg7422" viewBox="0 0 435.07 328.8" version="1.0">
  <g id="layer1" transform="translate(94.678 -249.39)">
    <g id="g7437" stroke="#5470af" stroke-width="16.25">
      <g id="g5970" transform="translate(-109.92 151.94)">
        <path id="path5968" fill="none" d="m228.25 177.88l10 31.87 37.5-13.13-8.13-33.12-39.37 14.38z"/>
        <path id="path5966" fill="none" d="m168.62 238.62c-5.62-4.37-20.62-43.12-20.62-43.12l44.38-13.75 13.12 45-36.88 11.87z"/>
        <path id="path5964" fill-rule="evenodd" fill="#fff" d="m187.06 390.09s148.75-68.75 148.75-77.5 35.43-162.14 36.25-161.25c0.82 0-253.75 101.25-253.75 101.25l68.75 137.5z"/>
      </g>
      <path id="path5523" fill-rule="evenodd" fill="#fff" d="m56.452 461.2l-24.557-19.74-39.731 28.71-24.988-21.3-33.141 30.34-19.564-13.82-1.024 101.83 418.82 2.85-0.02-87.62-28.92-14.72-24.99-21.29-40.73 32.64-22.2-23.47-18.76 11.46-17.73-15.86-20.75 21.81-17.61-11.18-28.23-18.26-20.75 21.81-17.722-15.86-17.406 11.67z"/>
      <path id="text2510" fill="#fff" d="m11.161 269.43c3.325 4 8.8 1.65 12.845 0.28 7.036-3.17 14.665 5.4 11.906 12.2 0.419 6.56 8.704 2.87 12.573 5.12 7.289 3.57 10.881 12.42 9.327 20.2-0.101 6.23-1.102 13.86-7.335 16.98-4.992 2.74-10.53-0.08-15.423-1.59-6.108 0.41-10.684 6.77-17.132 5.15-6.051-0.71-8.075-7.31-12.159-10.84-5.0966-2.75-12.432-0.98-16.065-6.34-2.95-4.47 1.3519-10.76-2.87-14.67-4.696-2.1-9.721-5.49-10.58-10.99-0.959-5.13 3.192-9.54 8.048-10.49 6.4609-0.64 8.4035-7.52 13.404-10.34 4.9193-1.75 11.062 0.69 13.461 5.33z"/>
      <path id="path5977" fill="#fff" d="m94.851 282.32c3.14 1.36 2.82 5.24 3.036 8.08-0.076 4.74 6.383 7.24 9.883 4.41 4.53-0.42 4.13 5.64 7.2 7.51 4.77 3.41 11.07 1.64 15.86-0.79 3.69-1.74 7.29-5.73 5.95-10.08-1.17-3.3-5.17-5.56-4.49-9.44 1.02-3.54 1.18-8.53-2.53-10.56-3.5-1.63-8.32-2.41-9.61-6.66-1.49-3.76-6.37-5.9-9.8-3.33-3.56 1.61-6.6-1-9.16-3.09-2.703-1.55-6.868-1.06-8.245 2.04-1.953 2.88 0.089 6.69-1.929 9.58-2.046 2.93-3.24 7.17-0.458 10.06 1.085 1.25 2.636 2.12 4.293 2.27z"/>
    </g>
  </g>
  <metadata>
    <rdf:RDF>
      <cc:Work>
        <dc:format>image/svg+xml</dc:format>
        <dc:type rdf:resource="http://purl.org/dc/dcmitype/StillImage"/>
        <cc:license rdf:resource="http://creativecommons.org/licenses/publicdomain/"/>
        <dc:publisher>
          <cc:Agent rdf:about="http://openclipart.org/">
            <dc:title>Openclipart</dc:title>
          </cc:Agent>
        </dc:publisher>
        <dc:title>ship</dc:title>
        <dc:date>2007-09-26T19:49:37</dc:date>
        <dc:description>clip art, clipart, image, media, ocean, ocean, png, public domain, sea, sea, sea transport, sea transport, ship, ship, sketch, sketch, steamship, steamship, svg, transport, transport, transportation, transportation, travel, travel, </dc:description>
        <dc:source>http://openclipart.org/detail/6168/ship-by-mcol</dc:source>
        <dc:creator>
          <cc:Agent>
            <dc:title>mcol</dc:title>
          </cc:Agent>
        </dc:creator>
        <dc:subject>
          <rdf:Bag>
            <rdf:li>clip art</rdf:li>
            <rdf:li>clipart</rdf:li>
            <rdf:li>image</rdf:li>
            <rdf:li>media</rdf:li>
            <rdf:li>ocean</rdf:li>
            <rdf:li>png</rdf:li>
            <rdf:li>public domain</rdf:li>
            <rdf:li>sea</rdf:li>
            <rdf:li>sea transport</rdf:li>
            <rdf:li>ship</rdf:li>
            <rdf:li>sketch</rdf:li>
            <rdf:li>steamship</rdf:li>
            <rdf:li>svg</rdf:li>
            <rdf:li>transport</rdf:li>
            <rdf:li>transportation</rdf:li>
            <rdf:li>travel</rdf:li>
          </rdf:Bag>
        </dc:subject>
      </cc:Work>
      <cc:License rdf:about="http://creativecommons.org/licenses/publicdomain/">
        <cc:permits rdf:resource="http://creativecommons.org/ns#Reproduction"/>
        <cc:permits rdf:resource="http://creativecommons.org/ns#Distribution"/>
        <cc:permits rdf:resource="http://creativecommons.org/ns#DerivativeWorks"/>
      </cc:License>
    </rdf:RDF>
  </metadata>
</svg>
